<svg id="Capa_1" enable-background="new 0 0 511.964 511.964" height="512" viewBox="0 0 511.964 511.964" width="512" xmlns="http://www.w3.org/2000/svg"><g><path d="m178.822 476.973c31.628 46.707 98.76 46.602 130.319 0z"/><path d="m395.489 306.268c-4.46-4.46-7.648-10.023-9.277-16.057-88.504 19.341-171.731-48.459-171.731-138.238 0-61.159 39.004-113.374 93.441-133.092-44.664-28.603-103.81-25.118-145.234 13.26-22.154 20.523-35.978 48.29-38.939 78.203-21.879 181.891-20.899 173.733-20.928 174.019-.802 8.254-4.477 16.033-10.347 21.904l-28.19 28.189c-12.448 12.447-19.304 28.999-19.304 46.606 0 36.343 29.567 65.91 65.91 65.91h266.18c36.343 0 65.91-29.567 65.91-65.91 0-17.607-6.855-34.159-19.304-46.606z"/><path d="m466.982 151.973c0-69.269-63.507-122.403-131.966-109.514.031.037.062.073 0 0-51.492 9.838-90.534 55.199-90.534 109.514 0 71.799 67.428 125.42 137.773 108.365-.01-.084-.005-.042 0 0 48.596-11.812 84.727-56.188 84.727-108.365zm-88 40c0 8.284-6.716 15-15 15s-15-6.716-15-15v-65h-14.101c-8.284 0-15-6.716-15-15s6.716-15 15-15h29.101c8.284 0 15 6.716 15 15z"/></g></svg>